<?xml version="1.0" encoding="UTF-8"?>
<!-- Generator: visioncortex VTracer 0.6.4 -->
<svg version="1.1" xmlns="http://www.w3.org/2000/svg" width="1264" height="848">
<path d="M0 0 C417.12 0 834.24 0 1264 0 C1264 279.84000000000003 1264 559.6800000000001 1264 848 C846.88 848 429.76 848 0 848 C0 568.16 0 288.31999999999994 0 0 Z " fill="#C1E9E3" transform="translate(0,0)"/>
<path d="M0 0 C2.338323693141092 -0.01968080957956886 4.676596488904124 -0.04754471468251609 7.01470947265625 -0.0845947265625 C34.33861897063821 -0.486610103554483 62.447341967871466 2.6333405407299892 82.95010375976563 22.40740966796875 C83.73772094726564 23.16666748046876 84.52533813476566 23.925925292968742 85.33682250976563 24.70819091796875 C98.99490200775483 38.876419395509345 105.52659108940315 57.90034714552013 110.07510375976563 76.65740966796875 C110.32807220458983 77.68040161132814 110.32807220458983 77.68040161132814 110.58615112304688 78.72406005859375 C113.74730886178827 91.56507779859919 115.9505744667756 104.46115601854223 117.59609985351563 117.58563232421875 C117.90970494055296 120.08538928696191 118.24573830188092 122.58035487386667 118.59463500976563 125.07537841796875 C123.51850273433479 160.88340272078443 126.433309674758 207.56393134288174 104.90713500976563 238.89178466796875 C94.32067073780536 252.49993435088777 80.73896807935716 260.2572134770678 64.95010375976563 266.40740966796875 C64.20478393554686 266.7276611328125 63.45946411132809 267.04791259765625 62.691558837890625 267.37786865234375 C59.504620092427785 268.5747090379183 56.35071778092072 269.326564692785 53.028228759765625 270.07147216796875 C52.34889282226561 270.22433685302735 51.6695568847656 270.37720153808596 50.969635009765625 270.5346984863281 C48.71433844593946 271.0395848698601 46.45746188151213 271.53682590151504 44.200103759765625 272.03240966796875 C43.01547546386723 272.2936865234375 43.01547546386723 272.2936865234375 41.806915283203125 272.56024169921875 C-31.963965527061646 288.792705223975 -106.45661843675691 299.6672299963038 -181.83920288085938 304.45697021484375 C-182.7315110778809 304.5141320800781 -183.6238192749023 304.5712939453125 -184.5431671142578 304.63018798828125 C-186.19769011792403 304.735441706116 -187.85235525606515 304.83849724660513 -189.50718688964844 304.93878173828125 C-190.25362960815426 304.98603393554686 -191.0000723266602 305.0332861328125 -191.76913452148438 305.08197021484375 C-192.4063442993164 305.12097946166995 -193.04355407714843 305.1599887084961 -193.7000732421875 305.20018005371094 C-195.73042991697685 305.379236106389 -197.75323118050244 305.6404274237486 -199.7726593017578 305.91668701171875 C-204.1134152069975 306.46813772641076 -208.3948837423626 306.56909393189414 -212.76644897460938 306.58441162109375 C-213.59862442016606 306.5909828186035 -214.43079986572263 306.5975540161133 -215.28819274902344 306.6043243408203 C-218.0199597262399 306.62389922947426 -220.7516720112768 306.63568750525434 -223.48348999023438 306.64569091796875 C-224.4258003425598 306.6497664451599 -225.36811069488522 306.6538419723511 -226.33897590637207 306.6580410003662 C-231.33172504864206 306.67883954921274 -236.32444725660628 306.6931652039063 -241.31723022460938 306.70257568359375 C-246.42729671300185 306.71359725684175 -251.5369226705726 306.7479659586282 -256.6468343734741 306.7877473831177 C-260.61672167583754 306.8141224589276 -264.58650751515296 306.8222861003004 -268.55647468566895 306.8258571624756 C-270.43760193528584 306.8306732398337 -272.31872622950186 306.84214129674103 -274.1997661590576 306.86089515686035 C-297.9747854866822 307.08310909957123 -319.94939529903695 301.95718833465526 -337.7373962402344 285.15740966796875 C-356.8418116883497 265.18003323276906 -363.6856868471692 233.83907552546452 -368.4873962402344 207.40740966796875 C-368.72208618164063 206.122939453125 -368.9567761230469 204.83846923828128 -369.1985778808594 203.51507568359375 C-372.44806949187574 184.51943493417832 -373.4915143793698 165.53545887854057 -373.4873962402344 146.28240966796875 C-373.4884637451172 145.21323303222653 -373.48953125 144.14405639648442 -373.4906311035156 143.04248046875 C-373.4591419755613 121.13708905480223 -372.22049545183927 99.28741146821801 -362.0498962402344 79.40740966796875 C-361.49946655273436 78.32072998046874 -360.94903686523435 77.23405029296873 -360.3819274902344 76.11444091796875 C-349.55642172554155 56.79472167479631 -332.7333951802849 45.91045534174941 -311.8886260986328 39.77082824707031 C-309.67087548509096 39.1580996980114 -307.44872412219456 38.567825786726445 -305.2217712402344 37.98944091796875 C-304.4013081359863 37.77535583496095 -303.58084503173825 37.56127075195312 -302.7355194091797 37.3406982421875 C-293.78787248203395 35.03735519400138 -284.77631392237635 33.06527400916107 -275.7373962402344 31.15740966796875 C-274.8506018066406 30.96931732177734 -273.96380737304685 30.78122497558593 -273.0501403808594 30.587432861328125 C-266.38714430061515 29.175864693855658 -259.71951353965954 27.787315985955956 -253.04989624023438 26.40740966796875 C-252.10068298339843 26.210444946289073 -251.15146972656248 26.013480224609367 -250.17349243164063 25.810546875 C-222.70289095260637 20.11900922475752 -195.2317949822259 15.31356754261455 -167.40811157226563 11.71343994140625 C-165.1395716171089 11.419047019203276 -162.8717573178426 11.11961605149179 -160.60409545898438 10.81854248046875 C-139.81057016313866 8.068457826956518 -118.98167022985808 6.150836862328333 -98.06967163085938 4.5623779296875 C-95.06768734558682 4.332049206724037 -92.06670307389004 4.089345418550124 -89.06552124023438 3.84881591796875 C-82.06419973030393 3.3016433665709997 -75.05938035596125 2.8366498855040163 -68.04989624023438 2.40740966796875 C-67.32552368164056 2.3625140380859477 -66.60115112304686 2.317618408203117 -65.85482788085938 2.2713623046875 C-43.91965398263562 0.9231929490526625 -21.97674567620288 0.16337942648550552 0 0 Z " fill="#4C4C4A" transform="translate(757.0498962402344,180.59259033203125)"/>
<path d="M0 0 C3.6572455240600448 1.8579589560732614 5.87244575742352 3.774720069684136 8.0625 7.3125 C8.639999999999986 8.178750000000008 9.217499999999973 9.045000000000002 9.8125 9.9375 C12.099700486538268 16.11294131365311 12.180485919902367 22.627681733437356 9.4375 28.6875 C7.007293612975332 32.892963534993015 3.685196014192684 36.46276592777778 -1.0458984375 37.99560546875 C-3.2882000723795954 39.25200596948396 -3.2882000723795954 39.25200596948396 -3.7587890625 42.47705078125 C-3.925866014397684 43.81841170243729 -4.072706946006974 45.16239250611835 -4.203125 46.5078125 C-4.32781158447267 47.56897781372072 -4.32781158447267 47.56897781372072 -4.45501708984375 48.651580810546875 C-4.716572021896354 50.91197558644129 -4.952292402641888 53.174226894809436 -5.1875 55.4375 C-5.360285574983891 56.97024394887325 -5.534744399143506 58.50280026690058 -5.7109375 60.03515625 C-6.142429768092597 63.792395527825306 -6.538879275312979 67.55104699151713 -6.9375 71.3125 C-1.6575000000000273 71.3125 3.6224999999999454 71.3125 9.0625 71.3125 C9.0625 73.29250000000002 9.0625 75.27249999999998 9.0625 77.3125 C10.062928314208989 77.16273208618162 11.063356628417978 77.0129641723633 12.094100952148438 76.85865783691406 C40.38784202694819 72.82871318693185 69.18972321502133 72.80072773543174 97.701904296875 72.866455078125 C101.92768974656849 72.8757324140193 106.15292690278534 72.86848516630818 110.378662109375 72.845947265625 C164.79214168845806 72.55738323284766 164.79214168845806 72.55738323284766 191.0625 82.3125 C192.26003906250003 82.753359375 193.45757812500005 83.19421875 194.69140625 83.6484375 C219.3650518749538 93.45289382956452 238.46798741703572 113.89452779198484 249.22900390625 137.91650390625 C259.0625 161.29592660353003 259.0625 161.29592660353003 259.0625 172.3125 C260.135 172.35375 261.2075 172.395 262.3125 172.4375 C274.99370854415577 174.0730622327268 286.5514506845336 183.63004517921354 294.47265625 193.19140625 C304.87668559371195 207.07196628350266 308.52175436947925 222.0877318022226 307.0625 239.3125 C304.7424953727434 254.80937643702475 297.35592636515855 269.6125966741348 285.21484375 279.671875 C273.4995437956204 288.3125 273.4995437956204 288.3125 270.0625 288.3125 C270.10890625 289.0305078125 270.15531250000004 289.748515625 270.203125 290.48828125 C271.10692052249806 316.40784569878366 260.3631877880439 342.29112897806385 243.0625 361.3125 C242.46308593749995 361.993125 241.86367187500002 362.67375 241.24609375 363.375 C232.8462314781558 372.3735565590382 222.28894520572248 379.3877768460579 211.5 385.1875 C210.8652172851563 385.53224365234377 210.23043457031247 385.8769873046875 209.576416015625 386.232177734375 C196.646355140467 392.91112165253315 182.87811191141327 395.9087182813377 168.75 398.8125 C166.8692265036441 399.2066022515047 164.98861238448717 399.60146582570786 163.108154296875 399.9970703125 C152.24933234285209 402.27378645226855 141.3776302505853 404.48866745071876 130.4912109375 406.629638671875 C119.98126740020075 408.7004151468778 109.52082286860309 410.9968667861772 99.0625 413.3125 C99.0625 413.9725 99.0625 414.6325 99.0625 415.3125 C100.76153023288123 416.82990975971114 102.52322722811027 418.277627999113 104.3125 419.6875 C111.2802419354839 425.19902073732715 111.2802419354839 425.19902073732715 114.0625 428.3125 C114.0625 428.9725 114.0625 429.6325 114.0625 430.3125 C114.63742187499997 430.5432421875 115.21234374999995 430.77398437500005 115.8046875 431.01171875 C118.6438202903339 432.6474129008325 120.15101391897815 434.5587269495611 122.1875 437.125 C122.97382812499995 438.115 123.76015625000002 439.105 124.5703125 440.125 C124.97926757812502 440.6483593749999 125.38822265625004 441.1717187500001 125.8095703125 441.7109375 C127.04815547722569 443.2941640550664 128.3013544520394 444.86592251039417 129.5546875 446.4375 C139.4204575939757 458.90438576617817 147.26059553134542 471.9550931508363 154.0625 486.3125 C154.75472656249997 487.74529296874994 154.75472656249997 487.74529296874994 155.4609375 489.20703125 C163.98419691121217 507.31217146426275 174.07722698499435 531.2245167328986 167.8125 551.3125 C163.96048941981212 560.9781932151011 157.01403303033146 568.1064749115646 147.6171875 572.43359375 C142.3499153528038 574.2457286630262 138.02826822275313 573.992958230953 132.8125 572.1875 C129.01250451676322 569.5965939887022 125.6707500641121 567.0099568060621 124.61328125 562.3203125 C124.41732954972156 558.739126253532 124.92383868897355 556.5353485355782 126.8125 553.5 C129.0625 551.3125 129.0625 551.3125 131.3125 549.875 C133.3492015448976 548.3803806283769 133.3492015448976 548.3803806283769 133.5625 545.5 C132.94715294679122 541.577162535794 131.50814595226223 539.4055228219787 129.0625 536.3125 C128.40249999999992 535.9825 127.74250000000006 535.6525 127.0625 535.3125 C126.89234375000001 535.9273828125 126.72218750000002 536.542265625 126.546875 537.17578125 C124.60627622377615 543.6478846153847 124.60627622377615 543.6478846153847 122.375 546.375 C118.90802319337058 547.7805311378228 115.69093626634822 548.0972213353808 112.0625 547.3125 C108.84295355021095 544.7779634331448 107.35817565096272 543.1995269528879 106.0625 539.3125 C105.619366800423 533.3971870568092 106.07214057048623 527.7117991909645 107.0625 521.875 C109.24519625891753 508.43085637623267 107.32788801206789 497.10866403620366 103.0625 484.3125 C103.05885437011716 485.07147583007804 103.05520874023432 485.8304516601563 103.05145263671875 486.6124267578125 C103.01346637404049 493.7916961769117 102.9564945415475 500.9704527445231 102.87859725952148 508.1493911743164 C102.83921523988943 511.8395201280571 102.80698185829397 515.529413784447 102.79150390625 519.2197265625 C102.7762753609054 522.7861958262087 102.74172247291199 526.3520178064341 102.6941909790039 529.9181976318359 C102.67229910287824 531.9297803827134 102.67003160425952 533.9415460775175 102.66815185546875 535.9532470703125 C102.53415870672097 544.384002919716 101.57962111354777 549.79610733965 96.31640625 556.5546875 C95.75824218749995 557.093515625 95.200078125 557.63234375 94.625 558.1875 C93.79162109375 559.0189453124999 93.79162109375 559.0189453124999 92.94140625 559.8671875 C90.77053233107983 561.5370905145539 88.63463469415376 562.4036496621001 86.0625 563.3125 C86.69478515624996 565.17455078125 86.69478515624996 565.17455078125 87.33984375 567.07421875 C87.89338951499337 568.71609178176 88.44676604482879 570.3580218767571 89 572 C89.27779296874996 572.81662109375 89.55558593749993 573.6332421875 89.841796875 574.474609375 C90.10927734375002 575.27060546875 90.37675781250005 576.0666015625 90.65234375 576.88671875 C90.89847412109373 577.6146362304687 91.14460449218745 578.3425537109375 91.398193359375 579.092529296875 C92.9257871916302 584.1974211442462 93.15933516209657 588.9421888867898 93.09765625 594.24609375 C93.10136814791872 595.7975326658827 93.10729581410078 597.3489675791636 93.115234375 598.900390625 C93.12579580753231 601.3282920338874 93.12494876041524 603.7532496340435 93.086669921875 606.180908203125 C92.59738676155689 615.4019728722474 92.59738676155689 615.4019728722474 95.80029296875 623.6455078125 C97.82914750260852 625.1528691805258 99.79591540952742 626.2121066308613 102.0625 627.3125 C104.7200876514521 629.5457635952777 106.71900571605727 631.8596881105373 107.5390625 635.328125 C107.6875 637.4374999999999 107.6875 637.4374999999999 107.0625 641.3125 C104.14447874613461 644.3882521324526 101.41665898863357 646.1521737812625 97.09912109375 646.4462127685547 C96.35227050781248 646.4500245666504 95.60541992187495 646.453836364746 94.8359375 646.457763671875 C93.98144515991203 646.4640528869629 93.12695281982428 646.4703421020508 92.24656677246094 646.4768218994141 C91.3195747375488 646.4780253601074 90.39258270263667 646.4792288208008 89.4375 646.48046875 C88.47058731079096 646.4846128845215 87.50367462158204 646.488757019043 86.50746154785156 646.4930267333984 C83.35910279450775 646.5027319956268 80.2108714470969 646.5026814174882 77.0625 646.5 C75.46581985473631 646.500090637207 75.46581985473631 646.500090637207 73.83688354492188 646.5001831054688 C61.24219025422963 646.489948451889 48.688274148744085 646.3877476466008 36.125 645.4375 C35.087949218750055 645.3591088867188 34.050898437499995 645.2807177734375 32.982421875 645.199951171875 C18.62566439782563 643.9326781481195 18.62566439782563 643.9326781481195 15.3623046875 640.55029296875 C13.824942716502619 637.9035123853237 13.713896971404779 636.3694655632056 13.76953125 633.328125 C13.780770263671911 632.0640380859375 13.780770263671911 632.0640380859375 13.792236328125 630.7744140625 C13.819548339843777 629.714482421875 13.846860351562555 628.65455078125 13.875 627.5625 C13.936874999999986 624.18 13.998749999999973 620.7975 14.0625 617.3125 C4.162500000000023 617.3125 -5.7374999999999545 617.3125 -15.9375 617.3125 C-15.607500000000073 619.6225 -15.277499999999918 621.9325 -14.9375 624.3125 C-14.779357551213252 626.7053767250837 -14.674677274895885 629.1024178379221 -14.625 631.5 C-14.587617187499973 632.6898046875 -14.550234374999945 633.879609375 -14.51171875 635.10546875 C-14.9375 638.3125 -14.9375 638.3125 -16.58203125 640.61328125 C-22.538343099878375 644.910123131753 -29.465254870621038 644.9377808082434 -36.5625 645.4375 C-37.742233886718736 645.5216918945313 -38.92196777343747 645.6058837890625 -40.137451171875 645.692626953125 C-52.169090545161794 646.4394496725411 -64.19827222122058 646.5007422081034 -76.25 646.5 C-77.71013519287112 646.5013595581054 -77.71013519287112 646.5013595581054 -79.19976806640625 646.5027465820313 C-82.00434773098232 646.5024508837768 -84.80873425687685 646.493500045627 -87.61328125 646.48046875 C-88.45082443237311 646.4792652893067 -89.28836761474611 646.4780618286132 -90.15129089355469 646.4768218994141 C-102.20117601703646 646.3810070664391 -102.20117601703646 646.3810070664391 -106.375 643.8125 C-108.75296134390783 640.0077618497476 -108.90824815503879 636.6661583922951 -107.9375 632.3125 C-105.12739672204327 627.3851956222128 -100.79968137143965 624.0751030519543 -95.9375 621.3125 C-95.27750000000003 621.3125 -94.61750000000006 621.3125 -93.9375 621.3125 C-94.09831054687504 620.5987622070312 -94.25912109374997 619.8850244140625 -94.4248046875 619.149658203125 C-97.38818710541705 602.7508643561661 -96.26797943909969 581.9626534963478 -87.9375 567.3125 C-87.9375 566.3225 -87.9375 565.3325 -87.9375 564.3125 C-89.80375118389952 562.7914564519166 -89.80375118389952 562.7914564519166 -92.1875 561.4375 C-95.88225106669745 559.086294775738 -98.51676475660997 557.0367080667538 -100.9375 553.3125 C-101.72229736328131 552.1136718749999 -101.72229736328131 552.1136718749999 -102.52294921875 550.890625 C-104.55348928875333 545.754346907841 -104.28897636719921 541.0334019240171 -104.1953125 535.5625 C-104.18869598388676 534.431025390625 -104.1820794677734 533.29955078125 -104.17526245117188 532.1337890625 C-104.1519078007268 528.5264129618035 -104.10821502579643 524.9196561407415 -104.0625 521.3125 C-104.0273723406076 517.7054187012957 -103.9965665098473 514.0983737971773 -103.97116088867188 510.4912109375 C-103.95426194330207 508.24961671060123 -103.9311849340786 506.0080583140923 -103.90115356445313 503.7666015625 C-103.85395598195419 498.82726983283374 -103.8653972130021 494.1657262748005 -104.9375 489.3125 C-109.09922486642267 501.72335808379614 -108.78705382823375 514.4956699559114 -106.9375 527.3125 C-106.75571465336816 530.1886038770675 -106.70786233880813 533.0562290586568 -106.6875 535.9375 C-106.666875 536.67484375 -106.64625000000001 537.4121875 -106.625 538.171875 C-106.59200841443476 542.7742011863472 -107.1272099549144 545.6427523197668 -109.9375 549.3125 C-111.9375 551.3125 -111.9375 551.3125 -115.75 551.8125 C-119.44685504725203 551.7187391835841 -119.84212394190786 551.4015176542193 -122.75 548.6875 C-124.82751463729619 545.7396751768094 -126.45138410559343 542.5975982928987 -127.9375 539.3125 C-128.9275 539.3125 -129.91750000000002 539.3125 -130.9375 539.3125 C-132.68741678437033 543.796661759949 -133.56128458847468 547.5004474603379 -132.9375 552.3125 C-130.6344713088626 554.62166659747 -130.6344713088626 554.62166659747 -127.9375 556.3125 C-125.45428868053318 560.0373169792002 -125.34985536393646 562.4051068932533 -125.4140625 566.796875 C-126.19330821743785 570.5419066569401 -128.12252364365747 572.0406202226648 -131.11328125 574.25390625 C-135.55165374919784 576.8294928608835 -139.96021052459912 576.9663942896585 -144.9375 576.3125 C-153.47484612793977 573.5736017899411 -160.8525518025989 567.6387227165073 -165.3515625 559.87109375 C-173.41890576430114 542.2564269822633 -167.95332796895013 523.2735303364749 -161.75 506 C-156.09743441290215 490.886500827531 -149.28309805830622 476.49386922398185 -139.9375 463.3125 C-139.4850390625 462.67215820312504 -139.032578125 462.0318164062501 -138.56640625 461.3720703125 C-131.4120021989982 451.3433020323355 -123.65284249398974 442.02784249398974 -114.9375 433.3125 C-116.09048583984372 433.2926806640626 -117.24347167968745 433.2728613281249 -118.431396484375 433.25244140625 C-122.79470171413516 433.17516805914033 -127.15772480437704 433.0866623439447 -131.520751953125 432.9951171875 C-133.3930902789795 432.95732128938164 -135.26548913991394 432.9223922934643 -137.137939453125 432.890625 C-173.90058939576755 432.2596757920812 -207.69129047308485 425.8840098554295 -234.34375 398.3125 C-245.27438822916025 385.66983409639295 -259.9375 362.489656050302 -259.9375 345.3125 C-260.59234375 345.1771484375 -261.2471875 345.041796875 -261.921875 344.90234375 C-277.66637503572167 341.18859868507695 -289.6329454751912 331.8771557443199 -298.2109375 318.34375 C-306.10624249528763 304.4823095557846 -307.2949808730916 286.93319345126315 -304.32421875 271.33984375 C-300.6933697938898 258.43193578708855 -293.2981228467675 246.79862025597788 -282.9375 238.3125 C-282.1919384765625 237.8997583007813 -281.446376953125 237.48701660156246 -280.67822265625 237.061767578125 C-275.92517357194777 234.45609787091894 -275.92517357194777 234.45609787091894 -273.013916015625 230.08154296875 C-272.5433404299183 227.37408567731717 -272.3281183718824 224.74438637044602 -272.1875 222 C-271.99704271949525 219.9354961684661 -271.79884613259685 217.87169472244636 -271.59375 215.80859375 C-271.4944921875 214.7410888671875 -271.395234375 213.673583984375 -271.29296875 212.57373046875 C-268.3431518482236 185.510781173469 -260.4202475118934 160.86384873552686 -240.9375 141.3125 C-240.28781249999997 140.639609375 -239.638125 139.96671875 -238.96875 139.2734375 C-231.95713468491692 132.5045319458236 -223.45718290799346 127.90740631427573 -214.9375 123.3125 C-214.277822265625 122.95655761718751 -213.61814453124998 122.600615234375 -212.9384765625 122.23388671875 C-169.98894100016025 99.56426589967992 -115.9730081156066 92.61576094161484 -68.34033203125 85.80126953125 C-65.95946294641169 85.45929077476796 -63.58033285033548 85.10508355367267 -61.20263671875 84.74169921875 C-59.979477539062486 84.5575244140625 -58.75631835937497 84.373349609375 -57.49609375 84.18359375 C-56.40482177734373 84.01657958984373 -55.313549804687455 83.84956542968752 -54.189208984375 83.677490234375 C-50.746203132888695 83.29102775611295 -47.39922579022891 83.251508860613 -43.9375 83.3125 C-43.9375 79.35250000000002 -43.9375 75.39249999999998 -43.9375 71.3125 C-36.34750000000008 71.3125 -28.757499999999936 71.3125 -20.9375 71.3125 C-20.9375 67.6825 -20.9375 64.05250000000001 -20.9375 60.3125 C-20.770300742074483 58.272461536499065 -20.562516390278006 56.234493146587454 -20.28125 54.20703125 C-20.145898437500023 53.20478515625001 -20.010546875000045 52.202539062499994 -19.87109375 51.169921875 C-19.728007812499982 50.16509765625 -19.584921874999964 49.160273437499995 -19.4375 48.125 C-19.294414062499982 47.07763671875 -19.151328124999964 46.0302734375 -19.00390625 44.951171875 C-18.654974162430108 42.4039676357404 -18.299430307144007 39.85788397745853 -17.9375 37.3125 C-18.707070312500036 37.041796875 -19.476640625000073 36.771093750000006 -20.26953125 36.4921875 C-25.018133370512942 34.39251277028565 -27.974295860145048 30.027695657330298 -29.9375 25.3125 C-30.76189067302539 19.01715304235148 -30.20532908947871 12.831246329434435 -26.9375 7.3125 C-19.641968933836097 -1.6218822476934633 -11.08722114400291 -4.534012620146882 0 0 Z M58.68695068359375 101.15106201171875 C56.00063169889768 101.31630570842151 53.314059567416734 101.47690761829256 50.62744140625 101.63720703125 C26.788837623702534 103.07612053181353 3.0829501465386784 105.14727421556046 -20.62298583984375 108.033203125 C-23.014489667777525 108.32179049127791 -25.40673766039231 108.60328314499628 -27.79931640625 108.8828125 C-138.6953573635838 117.0920213326678 -138.6953573635838 117.0920213326678 -230.9375 166.3125 C-246.67811915608166 188.00232954578183 -249.66445448084357 215.8079542690906 -249.34912109375 241.8291015625 C-249.31242703180766 244.943693540165 -249.30810553886204 248.05708793962475 -249.30859375 251.171875 C-249.24538240906656 269.7583876640541 -247.71614137798218 288.02626004491253 -244.375 306.3125 C-244.25011199951172 306.99996307373044 -244.12522399902343 307.68742614746094 -243.99655151367188 308.3957214355469 C-238.69377721190415 337.1867368092094 -230.32232522222392 373.3456587087626 -205.31494140625 391.48974609375 C-196.8762935595193 397.12620044329094 -187.71173600761188 400.69657376559763 -177.9375 403.3125 C-177.00996414184567 403.57315750122075 -177.00996414184567 403.57315750122075 -176.06369018554688 403.8390808105469 C-167.02760762316325 406.0236183775766 -157.78756935539957 405.60141127838983 -148.5546875 405.578125 C-146.653492743093 405.57947611408633 -144.75229832568147 405.5814203412996 -142.85110473632813 405.58392333984375 C-138.86863918508226 405.5868636286013 -134.88626362553487 405.58261900143424 -130.90380859375 405.5732421875 C-125.87221227886488 405.56195561054693 -120.84082991378875 405.5685361646275 -115.80924129486084 405.5801181793213 C-96.67134546978366 405.61762395321625 -77.65850520189076 405.6358338847837 -58.6085205078125 403.584228515625 C-53.70927769474633 403.08581827377657 -48.797506440003986 402.74587643818137 -43.88671875 402.3828125 C-19.502745070546098 400.5230752650781 4.808671001024322 398.45945561508586 29.0625 395.3125 C29.873400878906295 395.20786437988284 30.684301757812477 395.1032287597656 31.519775390625 394.99542236328125 C71.53024451186923 389.81691140190543 111.17816296741296 382.8333475878502 150.70794677734375 374.791015625 C152.25262064239473 374.477091703959 153.79757507626437 374.164544523072 155.34283447265625 373.853515625 C183.4596850524265 368.19415668170456 211.48284943642227 361.09305664484043 229.47265625 336.75390625 C243.12029515062682 315.7962298055485 245.26682547786413 291.95026536958187 245.25 267.5625 C245.2497280883789 266.88952880859375 245.2494561767578 266.2165576171875 245.24917602539063 265.523193359375 C245.22558762331767 252.71072818221495 244.49213664018362 240.0464933308284 243.0625 227.3125 C242.95534667968752 226.34376953125002 242.84819335937505 225.37503906249998 242.73779296875 224.376953125 C241.20417814792415 210.86685575143656 238.96843050967777 197.59195915298392 236.0625 184.3125 C235.90668457031256 183.57837890625 235.750869140625 182.84425781250002 235.59033203125 182.087890625 C229.95483690231003 155.6338626969813 221.00186616139786 129.6806504392031 197.66015625 113.6640625 C188.17544562796775 107.76046694694992 178.49099806956315 103.66319124475447 167.5234375 101.52734375 C166.44605316162108 101.31649642944336 165.36866882324216 101.10564910888672 164.25863647460938 100.88841247558594 C152.06973256007063 98.69503545871001 140.03180336930404 98.67864020640974 127.6875 98.875 C125.27247056678209 98.89591832131217 122.8574308072732 98.9156734933141 120.4423828125 98.934326171875 C99.83207621037809 99.13642333739244 79.2580758884834 99.88431811629255 58.68695068359375 101.15106201171875 Z " fill="#FDFEFD" transform="translate(632.9375,81.6875)"/>
<path d="M0 0 C9.899999999999977 0 19.799999999999955 0 30 0 C30.25 10.249999999997499 30.25 10.249999999997499 30.2978515625 13.4619140625 C30.479447183013463 18.788855788278056 30.479447183013463 18.788855788278056 32.5625 23.59765625 C35.867166877531645 25.498898892682405 39.0213923144031 25.884167199252147 42.75 26.1875 C43.40871093750002 26.256464843749995 44.067421875000036 26.32542968749999 44.74609375 26.396484375 C47.16205886687794 26.63540144293529 49.57889109569601 26.820229553268973 52 27 C53.632678222656295 27.130275878906218 53.632678222656295 27.130275878906218 55.29833984375 27.26318359375 C66.51446697926997 28.071906288181708 77.7152171078501 28.219239434375027 88.9580078125 28.240234375 C92.15454720389482 28.250091110711992 95.35048141144694 28.281296645871407 98.546875 28.3125 C100.59635041789227 28.319018649555915 102.64583033423969 28.324273562970916 104.6953125 28.328125 C105.64221954345703 28.340471801757758 106.58912658691406 28.35281860351563 107.56472778320313 28.36553955078125 C112.9824355252099 28.3472478894156 117.90705130785523 28.092948692144887 122 24 C122.57453177279035 19.906461118868947 122.8684554969368 17.393042776878474 120.6484375 13.83203125 C117.18311334514146 9.763710160705841 113.54320100646896 6.770244516139655 109 4 C109 3.669999999999959 109 3.340000000000032 109 3 C131.8018000232687 3.722680000737455 154.3374679235136 5.999391849957874 176.8125 9.875 C177.50789886474604 9.991932067871062 178.2032977294922 10.108864135742238 178.91976928710938 10.229339599609375 C191.53821797151477 12.372871923106459 205.22562078266242 14.776278138940143 216 22 C216.9375 25.75 216.9375 25.75 217 29 C207.3979743725132 35.71316404901654 197.05515832962737 38.50394797691729 185.625 40.5 C184.45509521484382 40.708666992187545 183.28519042968742 40.91733398437498 182.079833984375 41.13232421875 C125.90966509468944 50.94556774907494 69.19107903906638 52.38102509406542 12.299528002738953 52.370221734046936 C7.628624333891935 52.37082675542308 2.9579635060099463 52.387651802661935 -1.712890625 52.41162109375 C-30.802260564719063 52.558321740123006 -59.74574093542992 52.17549436127274 -88.765625 50.1640625 C-89.95490348815918 50.08189861297603 -91.14418197631835 49.99973472595218 -92.36949920654297 49.91508102416992 C-189.0698654731013 43.071140485625165 -189.0698654731013 43.071140485625165 -204 29 C-204.80859375 26.99609375 -204.80859375 26.99609375 -205 25 C-198.88969036196073 15.834535542941126 -184.8629231624414 14.375625096160206 -174.875 12.375 C-157.53139732638869 8.946149816251591 -140.15515477078793 6.547311932485513 -122.5625 4.875 C-120.82351913921661 4.704922956486257 -119.08458660833634 4.534351020214899 -117.345703125 4.36328125 C-91.65462030086178 1.8493497583231147 -91.65462030086178 1.8493497583231147 -84.25 1.9375 C-83.24453125000002 1.946523437499991 -82.23906250000005 1.9555468749999818 -81.203125 1.96484375 C-80.47609375000002 1.9764453125000045 -79.74906250000004 1.988046875000009 -79 2 C-80.20205210519066 5.606156315572093 -81.41594022457218 6.2954699878478095 -84.4375 8.5 C-87.32432979840553 10.612992597227844 -88.98984210846606 11.984763162699096 -91 15 C-91.24187650690487 17.745183206958586 -91.24187650690487 17.745183206958586 -91.125 20.6875 C-91.10695312500002 21.681367187499973 -91.08890625000004 22.675234374999945 -91.0703125 23.69921875 C-91.04710937499999 24.458476562499982 -91.02390624999998 25.217734374999964 -91 26 C-84.385929986679 27.53125199727549 -78.16519966154328 28.298237823709087 -71.3828125 28.265625 C-70.05148788452152 28.26978675842281 -70.05148788452152 28.26978675842281 -68.69326782226563 28.274032592773438 C-65.83701647239627 28.278157829078395 -62.98120695172395 28.265657584962355 -60.125 28.25 C-59.15067016601563 28.247230529785156 -58.17634033203126 28.244461059570313 -57.1724853515625 28.241607666015625 C-45.01323307240659 28.201033546023837 -32.88425726023809 28.004341057496504 -20.75 27.1875 C-19.653168945312473 27.117568359375014 -18.556337890624945 27.047636718750027 -17.42626953125 26.9755859375 C-11.440641896999523 26.497193154122556 -6.462396043150989 25.54527139569359 -1 23 C0.2263757036678271 20.547248592664346 0.11415314394912457 18.949421895547744 0.09765625 16.2109375 C0.09390991210943866 14.939357910156218 0.09390991210943866 14.939357910156218 0.090087890625 13.64208984375 C0.0809838867187409 12.563950195312486 0.07187988281248181 11.485810546874973 0.0625 10.375 C0.031562500000063665 5.2393749999999955 0.031562500000063665 5.2393749999999955 0 0 Z " fill="#9BB0AF" transform="translate(617,699)"/>
<path d="M0 0 C5.538461538461547 3.0769230769230944 5.538461538461547 3.0769230769230944 7 6 C8.0816280700667 15.734652630599896 3.8401453286664946 21.82188969849517 -1.47265625 29.671875 C-1.8903930664062045 30.296828613281264 -2.3081298828125227 30.921782226562527 -2.738525390625 31.565673828125 C-3.569041519995608 32.798026675789856 -4.415626003535067 34.01972547049894 -5.279052734375 35.229248046875 C-7.509088707239584 38.347971445119754 -7.509088707239584 38.347971445119754 -7.64453125 42.015625 C-4.676846641091743 45.59658410053544 -1.3228895681652375 48.751193764480945 2.037109375 51.958984375 C11.625228613232139 61.28290744593295 11.625228613232139 61.28290744593295 12.5 67.625 C11.973374545327374 71.17972181904025 11.17093449881827 73.16108565539139 9 76 C5.256704420598908 77.87164778970055 1.8336354214494577 77.19188396010071 -2 76 C-7.299208565255981 73.15890192063358 -12.141928051350533 69.52423063295544 -17 66 C-18.31966188010631 65.05638110362986 -19.639948852563407 64.11363563452244 -20.9609375 63.171875 C-21.963828124999964 62.455156250000016 -22.96671875000004 61.73843750000003 -24 61 C-24.230742187500027 61.68191406250003 -24.461484375000055 62.363828125 -24.69921875 63.06640625 C-26.319075373644523 66.71959641323434 -28.462203712911673 69.72185161899108 -30.8125 72.9375 C-31.23853515625001 73.53240234375 -31.664570312500018 74.12730468749999 -32.103515625 74.740234375 C-40.752636076955696 86.7129200233199 -40.752636076955696 86.7129200233199 -45 88 C-48.85809076142618 88.50322922975124 -50.693820298991454 88.15609161227889 -54.1875 86.375 C-58.01505235426157 83.14284467862353 -59.70237587540373 80.26979277439312 -60.35546875 75.2890625 C-59.86818328705749 70.78033327145545 -57.91917109025701 67.96939007678634 -55.4375 64.25 C-54.985844726562505 63.54987792968751 -54.53418945312501 62.84975585937502 -54.06884765625 62.12841796875 C-50.908714559014925 57.26331409023459 -47.61748335803361 52.49381378165856 -44.1796875 47.8203125 C-42.81871717108129 46.08179674829262 -42.81871717108129 46.08179674829262 -43 44 C-44.62684276118853 42.2944390406895 -46.3018843373917 40.63461272231683 -48 39 C-49.72281299991539 37.20125755176002 -51.43109850555595 35.38849473024925 -53.125 33.5625 C-53.973203125000055 32.65628906249998 -54.821406249999995 31.750078125000016 -55.6953125 30.81640625 C-58.73978514129328 27.0959574798772 -60.722330722782885 23.7007243229545 -61.5 18.9375 C-60.80411577811856 14.849180196446696 -59.29973371031883 13.43893361197479 -56 11 C-51.0713073117081 10.424985853032638 -48.30116814820269 11.566127739430215 -44.125 14.125 C-43.091171874999986 14.757929687499995 -42.05734374999997 15.390859374999991 -40.9921875 16.04296875 C-37.19018355279013 18.5296580157339 -33.54193309616198 21.156036072787572 -30 24 C-26.84151150665207 22.647628339878793 -25.200597691926646 21.316714905271056 -23.23046875 18.515625 C-22.733535156250014 17.827265624999995 -22.236601562500027 17.13890624999999 -21.724609375 16.4296875 C-20.71112095086869 14.992517129821408 -19.698089508351018 13.555024373367075 -18.685546875 12.1171875 C-8.782414581777402 -1.5968026512322808 -8.782414581777402 -1.5968026512322808 0 0 Z " fill="#C8F8F0" transform="translate(751,278)"/>
<path d="M0 0 C2.4375 1.5 2.4375 1.5 4 4 C4.614432154889641 10.608717945033561 3.1672613926207305 14.848002629872951 0.1875 20.6875 C-0.1689257812499818 21.420332031249984 -0.5253515624999636 22.153164062500025 -0.892578125 22.908203125 C-2.4070761961178277 25.989998282558986 -3.975304761424354 28.959425339723794 -5.76171875 31.89453125 C-7.168983412150055 33.880223594609106 -7.168983412150055 33.880223594609106 -7 36 C-5.468047277907772 37.3721230089605 -3.870789194842814 38.671544597813465 -2.25 39.9375 C2.172792635145356 43.475734108116285 6.447271254097814 47.11298845377411 10.625 50.9375 C11.145458984374955 51.40986083984376 11.665917968750023 51.88222167968752 12.2021484375 52.368896484375 C15.735013576060965 55.62151597483705 16.905672534199084 56.86807041038924 17.3125 61.75 C17.240192973771514 66.17679682798973 15.969267490992706 68.64003941808721 13 72 C9.636249116051886 74.317250608942 7.798789832542525 75.03411202131855 3.70703125 74.859375 C-0.5484410164175415 73.87285877385472 -3.2179805041562304 72.04644255753738 -6.5 69.3125 C-7.063884277343732 68.86350341796873 -7.627768554687464 68.41450683593752 -8.208740234375 67.951904296875 C-11.258467641878724 65.50623130164024 -14.17922279809261 62.9529093598461 -17.0625 60.3125 C-19.643397556935383 57.73913273966201 -19.643397556935383 57.73913273966201 -22.010498046875 58.171142578125 C-24.290082266267405 59.12085277874314 -25.22920653047572 60.03594642010995 -26.76953125 61.94921875 C-27.514931640625036 62.851240234374984 -27.514931640625036 62.851240234374984 -28.275390625 63.771484375 C-28.78263671875004 64.40376953125002 -29.289882812499968 65.03605468749998 -29.8125 65.6875 C-40.14719832109131 78.46812172088141 -40.14719832109131 78.46812172088141 -46.6875 79.6875 C-50 79 -50 79 -52.4375 77 C-54.41609142642358 73.20110446126671 -54.63367860634918 70.15924378653426 -54 66 C-52.66708737765657 62.24299313895057 -50.92892861644964 58.738207979210074 -49.125 55.1875 C-48.66480468750001 54.24712890625 -48.20460937500002 53.306757812499995 -47.73046875 52.337890625 C-45.96085589219285 48.74993643938814 -44.22162662438336 45.33243993657504 -42 42 C-42.20406446852394 39.40327963803327 -42.72946899485197 38.283643477336284 -44.53125 36.39453125 C-45.505781249999984 35.61142578124998 -45.505781249999984 35.61142578124998 -46.5 34.8125 C-49.7273639037457 32.10849240496981 -52.810016743600784 29.328342777571095 -55.8125 26.375 C-56.54082031249999 25.660859374999973 -57.26914062499998 24.946718750000002 -58.01953125 24.2109375 C-62.12668660512662 19.62582915482909 -63.555633781990196 16.23054048390088 -63.36328125 10.15625 C-62.82073377236469 6.9359681972613885 -61.33802730311618 5.200496285285794 -59 3 C-55.89547134710938 1.4477356735546891 -53.335006205182026 1.2934816297819225 -50 2 C-42.39585236227663 5.654706616580199 -36.32867541402766 11.17211755220012 -30.3125 16.9609375 C-28.09216287729953 19.18607967787341 -28.09216287729953 19.18607967787341 -25 20 C-24.756367187500018 19.440546874999995 -24.512734375000036 18.88109374999999 -24.26171875 18.3046875 C-19.795499576725433 10.146578174204251 -10.160179310406193 -1.917014964227576 0 0 Z " fill="#C9F9F1" transform="translate(554,304)"/>
<path d="M0 0 C19.139999999999986 0 38.27999999999997 0 58 0 C56.6296376081998 3.4259059795006124 55.28587986315847 6.414466796982083 53.5625 9.625 C47.279581687968744 22.098440766532576 45.83132915744886 36.23931473591256 45 50 C44.504999999999995 48.01999999999998 44.504999999999995 48.01999999999998 44 46 C34.10000000000002 46 24.200000000000045 46 14 46 C13.669999999999959 47.32000000000005 13.340000000000032 48.639999999999986 13 50 C12.965598144531214 49.417343749999986 12.931196289062541 48.83468749999997 12.895751953125 48.234375 C11.880535889379416 32.21757086872003 10.308269780813703 17.450577256121164 1.13671875 3.8203125 C0 2 0 2 0 0 Z " fill="#C3E8E2" transform="translate(603,653)"/>
<path d="M0 0 C0.6600000000000819 0 1.3199999999999363 0 2 0 C2.5104687499999727 1.17755859374995 2.5104687499999727 1.17755859374995 3.03125 2.37890625 C8.053200284253307 13.264250616134063 13.788273238899365 18.82155553579355 25 23 C25 23.659999999999968 25 24.32000000000005 25 25 C24.21496093750011 25.340312499999982 23.42992187499999 25.680624999999964 22.62109375 26.03125 C11.735749383865823 31.053200284253307 6.17844446420645 36.788273238899365 2 48 C1.3399999999999181 48 0.6800000000000637 48 0 48 C-0.3403124999999818 47.214960937499995 -0.6806249999999636 46.42992187499999 -1.03125 45.62109375 C-6.0532002842533075 34.73574938386594 -11.788273238899365 29.17844446420645 -23 25 C-23 24.340000000000032 -23 23.67999999999995 -23 23 C-22.21496093750011 22.659687500000018 -21.42992187499999 22.319375000000036 -20.62109375 21.96875 C-9.735749383865823 16.946799715746693 -4.17844446420645 11.211726761100635 0 0 Z " fill="#DFF3F0" transform="translate(1207,768)"/>
<path d="M0 0 C0.9900000000000091 0.3299999999999841 1.9800000000000182 0.660000000000025 3 1 C-0.33333333333337123 4.333333333333314 -3.6666666666666288 7.666666666666686 -7 11 C-7.659999999999968 10.670000000000016 -8.32000000000005 10.339999999999975 -9 10 C-6.029999999999973 6.699999999999989 -3.0599999999999454 3.3999999999999773 0 0 Z " fill="#CEEEE9" transform="translate(742,279)"/>
<path d="M0 0 C1.140625 1.734375 1.140625 1.734375 2 4 C1.171875 6.140625 1.171875 6.140625 -0.25 8.25 C-0.7089062499999841 8.956406249999986 -1.167812500000025 9.662812499999973 -1.640625 10.390625 C-2.0892187499999864 10.921718750000025 -2.5378124999999727 11.452812499999993 -3 12 C-3.660000000000025 12 -4.319999999999993 12 -5 12 C-3.689384089637315 7.765702443443729 -2.0564374072099554 3.9259259592190574 0 0 Z " fill="#BFE0DB" transform="translate(510,349)"/>
<path d="M0 0 C0.6599999999999682 0.660000000000025 1.32000000000005 1.3199999999999932 2 2 C1.3400000000000318 2.660000000000025 0.67999999999995 3.319999999999993 0 4 C-0.4004744427768401 6.322751768105718 -0.7397103968522742 8.657393571670923 -1 11 C-1.6599999999999682 10.670000000000016 -2.32000000000005 10.339999999999975 -3 10 C-3.3692307692307395 4.584615384615404 -3.3692307692307395 4.584615384615404 -1.5 1.625 C-1.0049999999999955 1.0887500000000045 -0.5099999999999909 0.5525000000000091 0 0 Z " fill="#C2E2DD" transform="translate(693,290)"/>
<path d="M0 0 C0.660000000000025 0.3299999999999841 1.3199999999999932 0.660000000000025 2 1 C0.35000000000002274 3.6399999999999864 -1.3000000000000114 6.279999999999973 -3 9 C-3.329999999999984 7.680000000000007 -3.660000000000025 6.360000000000014 -4 5 C-2.0625 2.25 -2.0625 2.25 0 0 Z " fill="#C4E3DE" transform="translate(495,307)"/>
</svg>
